<svg id="图层_1" data-name="图层 1" xmlns="http://www.w3.org/2000/svg" viewBox="0 0 15 15"><defs><style>.cls-1{fill:#01a2f0;}.cls-2{fill:#07a0eb;}.cls-3{fill:#0c9ee6;}.cls-4{fill:#129ce2;}.cls-5{fill:#179add;}.cls-6{fill:#1d98d8;}.cls-7{fill:#2397d3;}.cls-8{fill:#2895ce;}.cls-9{fill:#2e93ca;}.cls-10{fill:#3391c5;}.cls-11{fill:#398fc0;}.cls-12{fill:#3f8dbb;}.cls-13{fill:#448bb7;}.cls-14{fill:#4a89b2;}.cls-15{fill:#4f87ad;}.cls-16{fill:#5585a8;}.cls-17{fill:#5b83a3;}.cls-18{fill:#60829f;}.cls-19{fill:#66809a;}.cls-20{fill:#6b7e95;}.cls-21{fill:#717c90;}.cls-22{fill:#777a8b;}.cls-23{fill:#7c7887;}.cls-24{fill:#827682;}.cls-25{fill:#88747d;}.cls-26{fill:#8d7278;}.cls-27{fill:#937073;}.cls-28{fill:#986f6f;}.cls-29{fill:#9e6d6a;}.cls-30{fill:#a46b65;}.cls-31{fill:#a96960;}.cls-32{fill:#af675b;}.cls-33{fill:#b46557;}.cls-34{fill:#ba6352;}.cls-35{fill:#c0614d;}.cls-36{fill:#c55f48;}.cls-37{fill:#cb5d44;}.cls-38{fill:#d05b3f;}.cls-39{fill:#d65a3a;}.cls-40{fill:#dc5835;}.cls-41{fill:#e15630;}.cls-42{fill:#e7542c;}.cls-43{fill:#ec5227;}.cls-44{fill:#f25022;}.cls-45{fill:#04a2ee;}.cls-46{fill:#06a2eb;}.cls-47{fill:#09a3e9;}.cls-48{fill:#0ba3e6;}.cls-49{fill:#0ea3e4;}.cls-50{fill:#10a3e2;}.cls-51{fill:#13a4df;}.cls-52{fill:#15a4dd;}.cls-53{fill:#18a4da;}.cls-54{fill:#1aa4d8;}.cls-55{fill:#1da5d6;}.cls-56{fill:#20a5d3;}.cls-57{fill:#22a5d1;}.cls-58{fill:#25a5ce;}.cls-59{fill:#27a6cc;}.cls-60{fill:#2aa6ca;}.cls-61{fill:#2ca6c7;}.cls-62{fill:#2fa6c5;}.cls-63{fill:#31a7c2;}.cls-64{fill:#34a7c0;}.cls-65{fill:#36a7be;}.cls-66{fill:#39a7bb;}.cls-67{fill:#3ca8b9;}.cls-68{fill:#3ea8b6;}.cls-69{fill:#41a8b4;}.cls-70{fill:#43a8b1;}.cls-71{fill:#46a9af;}.cls-72{fill:#48a9ad;}.cls-73{fill:#4ba9aa;}.cls-74{fill:#4da9a8;}.cls-75{fill:#50aaa5;}.cls-76{fill:#52aaa3;}.cls-77{fill:#55aaa1;}.cls-78{fill:#58aa9e;}.cls-79{fill:#5aaa9c;}.cls-80{fill:#5dab99;}.cls-81{fill:#5fab97;}.cls-82{fill:#62ab95;}.cls-83{fill:#64ab92;}.cls-84{fill:#67ac90;}.cls-85{fill:#69ac8d;}.cls-86{fill:#6cac8b;}.cls-87{fill:#6eac89;}.cls-88{fill:#71ad86;}.cls-89{fill:#74ad84;}.cls-90{fill:#76ad81;}.cls-91{fill:#79ad7f;}.cls-92{fill:#7bae7d;}.cls-93{fill:#7eae7a;}.cls-94{fill:#80ae78;}.cls-95{fill:#83ae75;}.cls-96{fill:#85af73;}.cls-97{fill:#88af71;}.cls-98{fill:#8aaf6e;}.cls-99{fill:#8daf6c;}.cls-100{fill:#90b069;}.cls-101{fill:#92b067;}.cls-102{fill:#95b065;}.cls-103{fill:#97b062;}.cls-104{fill:#9ab160;}.cls-105{fill:#9cb15d;}.cls-106{fill:#9fb15b;}.cls-107{fill:#a1b159;}.cls-108{fill:#a4b256;}.cls-109{fill:#a6b254;}.cls-110{fill:#a9b251;}.cls-111{fill:#acb24f;}.cls-112{fill:#aeb24d;}.cls-113{fill:#b1b34a;}.cls-114{fill:#b3b348;}.cls-115{fill:#b6b345;}.cls-116{fill:#b8b343;}.cls-117{fill:#bbb441;}.cls-118{fill:#bdb43e;}.cls-119{fill:#c0b43c;}.cls-120{fill:#c2b439;}.cls-121{fill:#c5b537;}.cls-122{fill:#c8b534;}.cls-123{fill:#cab532;}.cls-124{fill:#cdb530;}.cls-125{fill:#cfb62d;}.cls-126{fill:#d2b62b;}.cls-127{fill:#d4b628;}.cls-128{fill:#d7b626;}.cls-129{fill:#d9b724;}.cls-130{fill:#dcb721;}.cls-131{fill:#deb71f;}.cls-132{fill:#e1b71c;}.cls-133{fill:#e4b81a;}.cls-134{fill:#e6b818;}.cls-135{fill:#e9b815;}.cls-136{fill:#ebb813;}.cls-137{fill:#eeb910;}.cls-138{fill:#f0b90e;}.cls-139{fill:#f3b90c;}.cls-140{fill:#f5b909;}.cls-141{fill:#f8ba07;}.cls-142{fill:#faba04;}.cls-143{fill:#fdba02;}.cls-144{fill:#7fba00;}.cls-145{fill:#7cb906;}.cls-146{fill:#79b90b;}.cls-147{fill:#76b811;}.cls-148{fill:#73b816;}.cls-149{fill:#70b71c;}.cls-150{fill:#6db721;}.cls-151{fill:#6ab627;}.cls-152{fill:#68b62d;}.cls-153{fill:#65b532;}.cls-154{fill:#62b438;}.cls-155{fill:#5fb43d;}.cls-156{fill:#5cb343;}.cls-157{fill:#59b349;}.cls-158{fill:#56b24e;}.cls-159{fill:#53b254;}.cls-160{fill:#50b159;}.cls-161{fill:#4db15f;}.cls-162{fill:#4ab064;}.cls-163{fill:#47af6a;}.cls-164{fill:#44af70;}.cls-165{fill:#41ae75;}.cls-166{fill:#3fae7b;}.cls-167{fill:#3cad80;}.cls-168{fill:#39ad86;}.cls-169{fill:#36ac8c;}.cls-170{fill:#33ab91;}.cls-171{fill:#30ab97;}.cls-172{fill:#2daa9c;}.cls-173{fill:#2aaaa2;}.cls-174{fill:#27a9a7;}.cls-175{fill:#24a9ad;}.cls-176{fill:#21a8b3;}.cls-177{fill:#1ea8b8;}.cls-178{fill:#1ba7be;}.cls-179{fill:#18a6c3;}.cls-180{fill:#16a6c9;}.cls-181{fill:#13a5cf;}.cls-182{fill:#10a5d4;}.cls-183{fill:#0da4da;}.cls-184{fill:#0aa4df;}.cls-185{fill:#07a3e5;}.cls-186{fill:#04a3ea;}.cls-187{fill:#05a2ec;}.cls-188{fill:#0aa3e8;}.cls-189{fill:#0ea3e3;}.cls-190{fill:#17a4db;}.cls-191{fill:#1ca5d7;}.cls-192{fill:#24a5cf;}.cls-193{fill:#29a6ca;}.cls-194{fill:#2da6c6;}.cls-195{fill:#32a7c2;}.cls-196{fill:#3aa7ba;}.cls-197{fill:#3fa8b6;}.cls-198{fill:#4ca9a9;}.cls-199{fill:#51aaa5;}.cls-200{fill:#59aa9c;}.cls-201{fill:#5eab98;}.cls-202{fill:#62ab94;}.cls-203{fill:#6bac8c;}.cls-204{fill:#70ad88;}.cls-205{fill:#74ad83;}.cls-206{fill:#78ad7f;}.cls-207{fill:#7dae7b;}.cls-208{fill:#81ae77;}.cls-209{fill:#86af73;}.cls-210{fill:#8aaf6f;}.cls-211{fill:#8eaf6a;}.cls-212{fill:#93b066;}.cls-213{fill:#9cb15e;}.cls-214{fill:#a0b15a;}.cls-215{fill:#a5b256;}.cls-216{fill:#adb24d;}.cls-217{fill:#b2b349;}.cls-218{fill:#bfb43c;}.cls-219{fill:#c4b538;}.cls-220{fill:#ccb530;}.cls-221{fill:#d1b62c;}.cls-222{fill:#d5b628;}.cls-223{fill:#dab723;}.cls-224{fill:#e2b71b;}.cls-225{fill:#e7b817;}.cls-226{fill:#f0b90f;}.cls-227{fill:#f4b90a;}.cls-228{fill:#f9ba06;}.cls-229{fill:#fcba02;}.cls-230{fill:#faba02;}.cls-231{fill:#f9ba02;}.cls-232{fill:#f8ba02;}.cls-233{fill:#f7ba02;}.cls-234{fill:#f5ba02;}.cls-235{fill:#f4ba02;}.cls-236{fill:#f3ba02;}.cls-237{fill:#f2ba02;}.cls-238{fill:#f0ba02;}.cls-239{fill:#efba02;}.cls-240{fill:#eeba02;}.cls-241{fill:#ecba02;}.cls-242{fill:#ebba02;}.cls-243{fill:#eaba02;}.cls-244{fill:#e9ba02;}.cls-245{fill:#e7ba02;}.cls-246{fill:#e6ba02;}.cls-247{fill:#e5ba02;}.cls-248{fill:#e4ba02;}.cls-249{fill:#e2ba02;}.cls-250{fill:#e1ba02;}.cls-251{fill:#e0ba02;}.cls-252{fill:#deba02;}.cls-253{fill:#ddba01;}.cls-254{fill:#dcba01;}.cls-255{fill:#dbba01;}.cls-256{fill:#d9ba01;}.cls-257{fill:#d8ba01;}.cls-258{fill:#d7ba01;}.cls-259{fill:#d6ba01;}.cls-260{fill:#d4ba01;}.cls-261{fill:#d3ba01;}.cls-262{fill:#d2ba01;}.cls-263{fill:#d0ba01;}.cls-264{fill:#cfba01;}.cls-265{fill:#ceba01;}.cls-266{fill:#cdba01;}.cls-267{fill:#cbba01;}.cls-268{fill:#caba01;}.cls-269{fill:#c9ba01;}.cls-270{fill:#c8ba01;}.cls-271{fill:#c6ba01;}.cls-272{fill:#c5ba01;}.cls-273{fill:#c4ba01;}.cls-274{fill:#c2ba01;}.cls-275{fill:#c1ba01;}.cls-276{fill:#c0ba01;}.cls-277{fill:#bfba01;}.cls-278{fill:#bdba01;}.cls-279{fill:#bcba01;}.cls-280{fill:#bbba01;}.cls-281{fill:#baba01;}.cls-282{fill:#b8ba01;}.cls-283{fill:#b7ba01;}.cls-284{fill:#b6ba01;}.cls-285{fill:#b4ba01;}.cls-286{fill:#b3ba01;}.cls-287{fill:#b2ba01;}.cls-288{fill:#b1ba01;}.cls-289{fill:#afba01;}.cls-290{fill:#aeba01;}.cls-291{fill:#adba01;}.cls-292{fill:#acba01;}.cls-293{fill:#aaba01;}.cls-294{fill:#a9ba01;}.cls-295{fill:#a8ba01;}.cls-296{fill:#a6ba01;}.cls-297{fill:#a5ba01;}.cls-298{fill:#a4ba01;}.cls-299{fill:#a3ba01;}.cls-300{fill:#a1ba01;}.cls-301{fill:#a0ba01;}.cls-302{fill:#9fba01;}.cls-303{fill:#9eba00;}.cls-304{fill:#9cba00;}.cls-305{fill:#9bba00;}.cls-306{fill:#9aba00;}.cls-307{fill:#98ba00;}.cls-308{fill:#97ba00;}.cls-309{fill:#96ba00;}.cls-310{fill:#95ba00;}.cls-311{fill:#93ba00;}.cls-312{fill:#92ba00;}.cls-313{fill:#91ba00;}.cls-314{fill:#90ba00;}.cls-315{fill:#8eba00;}.cls-316{fill:#8dba00;}.cls-317{fill:#8cba00;}.cls-318{fill:#8aba00;}.cls-319{fill:#89ba00;}.cls-320{fill:#88ba00;}.cls-321{fill:#87ba00;}.cls-322{fill:#85ba00;}.cls-323{fill:#84ba00;}.cls-324{fill:#83ba00;}.cls-325{fill:#82ba00;}.cls-326{fill:#80ba00;}.cls-327{fill:#81b801;}.cls-328{fill:#84b601;}.cls-329{fill:#86b402;}.cls-330{fill:#88b203;}.cls-331{fill:#8aaf03;}.cls-332{fill:#8dad04;}.cls-333{fill:#8fab05;}.cls-334{fill:#91a905;}.cls-335{fill:#94a706;}.cls-336{fill:#96a507;}.cls-337{fill:#98a307;}.cls-338{fill:#9ba108;}.cls-339{fill:#9d9e09;}.cls-340{fill:#9f9c0a;}.cls-341{fill:#a19a0a;}.cls-342{fill:#a4980b;}.cls-343{fill:#a6960c;}.cls-344{fill:#a8940c;}.cls-345{fill:#ab920d;}.cls-346{fill:#ad900e;}.cls-347{fill:#af8d0e;}.cls-348{fill:#b28b0f;}.cls-349{fill:#b48910;}.cls-350{fill:#b68710;}.cls-351{fill:#b98511;}.cls-352{fill:#bb8312;}.cls-353{fill:#bd8112;}.cls-354{fill:#bf7f13;}.cls-355{fill:#c27d14;}.cls-356{fill:#c47a14;}.cls-357{fill:#c67815;}.cls-358{fill:#c97616;}.cls-359{fill:#cb7416;}.cls-360{fill:#cd7217;}.cls-361{fill:#d07018;}.cls-362{fill:#d26e18;}.cls-363{fill:#d46c19;}.cls-364{fill:#d6691a;}.cls-365{fill:#d9671b;}.cls-366{fill:#db651b;}.cls-367{fill:#dd631c;}.cls-368{fill:#e0611d;}.cls-369{fill:#e25f1d;}.cls-370{fill:#e45d1e;}.cls-371{fill:#e75b1f;}.cls-372{fill:#e9581f;}.cls-373{fill:#eb5620;}.cls-374{fill:#ed5421;}.cls-375{fill:#f05221;}.cls-376{fill:#ed5226;}.cls-377{fill:#e8532a;}.cls-378{fill:#e4552e;}.cls-379{fill:#df5732;}.cls-380{fill:#da5837;}.cls-381{fill:#d55a3b;}.cls-382{fill:#cb5d43;}.cls-383{fill:#c75f47;}.cls-384{fill:#c2604b;}.cls-385{fill:#bd624f;}.cls-386{fill:#b86453;}.cls-387{fill:#b36558;}.cls-388{fill:#af675c;}.cls-389{fill:#aa6960;}.cls-390{fill:#a56a64;}.cls-391{fill:#a06c68;}.cls-392{fill:#9b6e6c;}.cls-393{fill:#966f70;}.cls-394{fill:#927174;}.cls-395{fill:#8d7279;}.cls-396{fill:#837681;}.cls-397{fill:#7e7785;}.cls-398{fill:#7a7989;}.cls-399{fill:#757b8d;}.cls-400{fill:#707c91;}.cls-401{fill:#668099;}.cls-402{fill:#61819e;}.cls-403{fill:#5d83a2;}.cls-404{fill:#5884a6;}.cls-405{fill:#5386aa;}.cls-406{fill:#4e88ae;}.cls-407{fill:#4989b2;}.cls-408{fill:#448bb6;}.cls-409{fill:#408dba;}.cls-410{fill:#3b8ebf;}.cls-411{fill:#3690c3;}.cls-412{fill:#3192c7;}.cls-413{fill:#2c93cb;}.cls-414{fill:#2895cf;}.cls-415{fill:#1e98d7;}.cls-416{fill:#199adb;}.cls-417{fill:#149be0;}.cls-418{fill:#0f9de4;}.cls-419{fill:#0b9fe8;}.cls-420{fill:#06a0ec;}</style></defs><title>微软技术暨生态大会-01</title><circle class="cls-1" cx="9.32" cy="6.64" r="0.42"/><circle class="cls-2" cx="9.28" cy="6.52" r="0.42"/><circle class="cls-3" cx="9.24" cy="6.4" r="0.42"/><circle class="cls-4" cx="9.2" cy="6.28" r="0.42"/><circle class="cls-5" cx="9.16" cy="6.16" r="0.42"/><circle class="cls-6" cx="9.11" cy="6.03" r="0.42"/><circle class="cls-7" cx="9.07" cy="5.91" r="0.42"/><circle class="cls-8" cx="9.03" cy="5.79" r="0.42"/><circle class="cls-9" cx="8.99" cy="5.67" r="0.42"/><circle class="cls-10" cx="8.94" cy="5.55" r="0.42"/><circle class="cls-11" cx="8.9" cy="5.42" r="0.42"/><circle class="cls-12" cx="8.86" cy="5.3" r="0.42"/><circle class="cls-13" cx="8.82" cy="5.18" r="0.42"/><circle class="cls-14" cx="8.77" cy="5.06" r="0.42"/><circle class="cls-15" cx="8.73" cy="4.94" r="0.42"/><circle class="cls-16" cx="8.69" cy="4.81" r="0.42"/><circle class="cls-17" cx="8.65" cy="4.69" r="0.42"/><circle class="cls-18" cx="8.6" cy="4.57" r="0.42"/><circle class="cls-19" cx="8.56" cy="4.45" r="0.42"/><circle class="cls-20" cx="8.52" cy="4.33" r="0.42"/><circle class="cls-21" cx="8.48" cy="4.2" r="0.42"/><circle class="cls-22" cx="8.43" cy="4.08" r="0.42"/><circle class="cls-23" cx="8.39" cy="3.96" r="0.42"/><circle class="cls-24" cx="8.35" cy="3.84" r="0.42"/><circle class="cls-25" cx="8.31" cy="3.72" r="0.42"/><circle class="cls-26" cx="8.26" cy="3.6" r="0.42"/><circle class="cls-27" cx="8.22" cy="3.47" r="0.42"/><circle class="cls-28" cx="8.18" cy="3.35" r="0.42"/><circle class="cls-29" cx="8.14" cy="3.23" r="0.42"/><circle class="cls-30" cx="8.09" cy="3.11" r="0.42"/><circle class="cls-31" cx="8.05" cy="2.99" r="0.42"/><circle class="cls-32" cx="8.01" cy="2.86" r="0.42"/><circle class="cls-33" cx="7.97" cy="2.74" r="0.42"/><circle class="cls-34" cx="7.92" cy="2.62" r="0.42"/><circle class="cls-35" cx="7.88" cy="2.5" r="0.42"/><circle class="cls-36" cx="7.84" cy="2.38" r="0.42"/><circle class="cls-37" cx="7.8" cy="2.25" r="0.42"/><circle class="cls-38" cx="7.75" cy="2.13" r="0.42"/><circle class="cls-39" cx="7.71" cy="2.01" r="0.42"/><circle class="cls-40" cx="7.67" cy="1.89" r="0.42"/><circle class="cls-41" cx="7.63" cy="1.77" r="0.42"/><circle class="cls-42" cx="7.58" cy="1.64" r="0.42"/><circle class="cls-43" cx="7.54" cy="1.52" r="0.42"/><circle class="cls-44" cx="7.5" cy="1.4" r="0.42"/><circle class="cls-1" cx="9.32" cy="6.64" r="0.42"/><circle class="cls-1" cx="9.29" cy="6.65" r="0.42"/><circle class="cls-1" cx="9.25" cy="6.65" r="0.42"/><circle class="cls-1" cx="9.21" cy="6.66" r="0.42"/><circle class="cls-1" cx="9.17" cy="6.66" r="0.42"/><circle class="cls-1" cx="9.13" cy="6.66" r="0.42"/><circle class="cls-1" cx="9.09" cy="6.67" r="0.42"/><circle class="cls-1" cx="9.05" cy="6.67" r="0.42"/><circle class="cls-1" cx="9.01" cy="6.68" r="0.42"/><circle class="cls-1" cx="8.97" cy="6.68" r="0.42"/><circle class="cls-1" cx="8.93" cy="6.68" r="0.42"/><circle class="cls-1" cx="8.89" cy="6.69" r="0.42"/><circle class="cls-1" cx="8.85" cy="6.69" r="0.42"/><circle class="cls-1" cx="8.81" cy="6.7" r="0.42"/><circle class="cls-1" cx="8.77" cy="6.7" r="0.42"/><circle class="cls-1" cx="8.73" cy="6.7" r="0.42"/><circle class="cls-1" cx="8.69" cy="6.71" r="0.42"/><circle class="cls-1" cx="8.65" cy="6.71" r="0.42"/><circle class="cls-1" cx="8.62" cy="6.72" r="0.42"/><circle class="cls-1" cx="8.58" cy="6.72" r="0.42"/><circle class="cls-1" cx="8.54" cy="6.72" r="0.42"/><circle class="cls-1" cx="8.5" cy="6.73" r="0.42"/><circle class="cls-1" cx="8.46" cy="6.73" r="0.42"/><circle class="cls-1" cx="8.42" cy="6.74" r="0.42"/><circle class="cls-1" cx="8.38" cy="6.74" r="0.42"/><circle class="cls-1" cx="8.34" cy="6.74" r="0.42"/><circle class="cls-1" cx="8.3" cy="6.75" r="0.42"/><circle class="cls-1" cx="8.26" cy="6.75" r="0.42"/><circle class="cls-1" cx="8.22" cy="6.76" r="0.42"/><circle class="cls-1" cx="8.18" cy="6.76" r="0.42"/><circle class="cls-1" cx="8.14" cy="6.76" r="0.42"/><circle class="cls-1" cx="8.1" cy="6.77" r="0.42"/><circle class="cls-1" cx="8.06" cy="6.77" r="0.42"/><circle class="cls-1" cx="8.02" cy="6.78" r="0.42"/><circle class="cls-1" cx="7.98" cy="6.78" r="0.42"/><circle class="cls-1" cx="7.94" cy="6.78" r="0.42"/><circle class="cls-1" cx="7.91" cy="6.79" r="0.42"/><circle class="cls-1" cx="7.87" cy="6.79" r="0.42"/><circle class="cls-1" cx="7.83" cy="6.8" r="0.42"/><circle class="cls-1" cx="7.79" cy="6.8" r="0.42"/><circle class="cls-1" cx="7.75" cy="6.8" r="0.42"/><circle class="cls-1" cx="7.71" cy="6.81" r="0.42"/><circle class="cls-1" cx="7.67" cy="6.81" r="0.42"/><circle class="cls-1" cx="7.63" cy="6.82" r="0.42"/><circle class="cls-1" cx="7.59" cy="6.82" r="0.42"/><circle class="cls-1" cx="7.55" cy="6.82" r="0.42"/><circle class="cls-1" cx="7.51" cy="6.83" r="0.42"/><circle class="cls-1" cx="7.47" cy="6.83" r="0.42"/><circle class="cls-1" cx="7.43" cy="6.84" r="0.42"/><circle class="cls-1" cx="7.39" cy="6.84" r="0.42"/><circle class="cls-1" cx="7.35" cy="6.84" r="0.42"/><circle class="cls-1" cx="7.31" cy="6.85" r="0.42"/><circle class="cls-1" cx="7.27" cy="6.85" r="0.42"/><circle class="cls-1" cx="7.24" cy="6.86" r="0.42"/><circle class="cls-1" cx="7.2" cy="6.86" r="0.42"/><circle class="cls-1" cx="7.16" cy="6.86" r="0.42"/><circle class="cls-1" cx="7.12" cy="6.87" r="0.42"/><circle class="cls-1" cx="7.08" cy="6.87" r="0.42"/><circle class="cls-1" cx="7.04" cy="6.88" r="0.42"/><circle class="cls-1" cx="7" cy="6.88" r="0.42"/><circle class="cls-1" cx="6.96" cy="6.89" r="0.42"/><circle class="cls-1" cx="6.92" cy="6.89" r="0.42"/><circle class="cls-1" cx="6.88" cy="6.89" r="0.42"/><circle class="cls-1" cx="6.84" cy="6.9" r="0.42"/><circle class="cls-1" cx="6.8" cy="6.9" r="0.42"/><circle class="cls-1" cx="6.76" cy="6.91" r="0.42"/><circle class="cls-1" cx="6.72" cy="6.91" r="0.42"/><circle class="cls-1" cx="6.68" cy="6.91" r="0.42"/><circle class="cls-1" cx="6.64" cy="6.92" r="0.42"/><circle class="cls-1" cx="6.6" cy="6.92" r="0.42"/><circle class="cls-1" cx="6.57" cy="6.93" r="0.42"/><circle class="cls-1" cx="6.53" cy="6.93" r="0.42"/><circle class="cls-1" cx="6.49" cy="6.93" r="0.42"/><circle class="cls-1" cx="6.45" cy="6.94" r="0.42"/><circle class="cls-1" cx="6.41" cy="6.94" r="0.42"/><circle class="cls-1" cx="6.37" cy="6.95" r="0.42"/><circle class="cls-1" cx="6.33" cy="6.95" r="0.42"/><circle class="cls-1" cx="6.29" cy="6.95" r="0.42"/><circle class="cls-1" cx="6.25" cy="6.96" r="0.42"/><circle class="cls-1" cx="6.21" cy="6.96" r="0.42"/><circle class="cls-1" cx="6.17" cy="6.97" r="0.42"/><circle class="cls-1" cx="6.13" cy="6.97" r="0.42"/><circle class="cls-1" cx="6.09" cy="6.97" r="0.42"/><circle class="cls-1" cx="6.05" cy="6.98" r="0.42"/><circle class="cls-1" cx="6.01" cy="6.98" r="0.42"/><circle class="cls-1" cx="5.97" cy="6.99" r="0.42"/><circle class="cls-1" cx="5.93" cy="6.99" r="0.42"/><circle class="cls-1" cx="5.89" cy="6.99" r="0.42"/><circle class="cls-1" cx="5.86" cy="7" r="0.42"/><circle class="cls-1" cx="5.82" cy="7" r="0.42"/><circle class="cls-1" cx="5.78" cy="7.01" r="0.42"/><circle class="cls-1" cx="5.74" cy="7.01" r="0.42"/><circle class="cls-1" cx="5.7" cy="7.01" r="0.42"/><circle class="cls-1" cx="5.66" cy="7.02" r="0.42"/><circle class="cls-1" cx="5.62" cy="7.02" r="0.42"/><circle class="cls-1" cx="5.58" cy="7.03" r="0.42"/><circle class="cls-1" cx="5.54" cy="7.03" r="0.42"/><circle class="cls-1" cx="5.5" cy="7.03" r="0.42"/><circle class="cls-1" cx="5.46" cy="7.04" r="0.42"/><circle class="cls-1" cx="5.42" cy="7.04" r="0.42"/><circle class="cls-1" cx="5.38" cy="7.05" r="0.42"/><circle class="cls-1" cx="5.34" cy="7.05" r="0.42"/><circle class="cls-1" cx="5.3" cy="7.05" r="0.42"/><circle class="cls-1" cx="5.26" cy="7.06" r="0.42"/><circle class="cls-1" cx="5.22" cy="7.06" r="0.42"/><circle class="cls-1" cx="5.19" cy="7.07" r="0.42"/><circle class="cls-1" cx="5.15" cy="7.07" r="0.42"/><circle class="cls-1" cx="5.11" cy="7.07" r="0.42"/><circle class="cls-1" cx="5.07" cy="7.08" r="0.42"/><circle class="cls-1" cx="5.03" cy="7.08" r="0.42"/><circle class="cls-1" cx="4.99" cy="7.09" r="0.42"/><circle class="cls-1" cx="4.95" cy="7.09" r="0.42"/><circle class="cls-1" cx="4.91" cy="7.09" r="0.42"/><circle class="cls-1" cx="4.87" cy="7.1" r="0.42"/><circle class="cls-1" cx="4.83" cy="7.1" r="0.42"/><circle class="cls-1" cx="4.79" cy="7.11" r="0.42"/><circle class="cls-1" cx="4.75" cy="7.11" r="0.42"/><circle class="cls-1" cx="4.71" cy="7.12" r="0.42"/><circle class="cls-1" cx="4.67" cy="7.12" r="0.42"/><circle class="cls-1" cx="4.63" cy="7.12" r="0.42"/><circle class="cls-1" cx="4.59" cy="7.13" r="0.42"/><circle class="cls-1" cx="4.55" cy="7.13" r="0.42"/><circle class="cls-1" cx="4.52" cy="7.14" r="0.42"/><circle class="cls-1" cx="4.48" cy="7.14" r="0.42"/><circle class="cls-1" cx="4.44" cy="7.14" r="0.42"/><circle class="cls-1" cx="4.4" cy="7.15" r="0.42"/><circle class="cls-1" cx="4.36" cy="7.15" r="0.42"/><circle class="cls-1" cx="4.32" cy="7.16" r="0.42"/><circle class="cls-1" cx="4.28" cy="7.16" r="0.42"/><circle class="cls-1" cx="4.24" cy="7.16" r="0.42"/><circle class="cls-1" cx="4.2" cy="7.17" r="0.42"/><circle class="cls-1" cx="4.16" cy="7.17" r="0.42"/><circle class="cls-1" cx="4.12" cy="7.18" r="0.42"/><circle class="cls-1" cx="4.08" cy="7.18" r="0.42"/><circle class="cls-1" cx="4.04" cy="7.18" r="0.42"/><circle class="cls-1" cx="4" cy="7.19" r="0.42"/><circle class="cls-1" cx="3.96" cy="7.19" r="0.42"/><circle class="cls-1" cx="3.92" cy="7.2" r="0.42"/><circle class="cls-1" cx="3.88" cy="7.2" r="0.42"/><circle class="cls-1" cx="3.84" cy="7.2" r="0.42"/><circle class="cls-1" cx="3.81" cy="7.21" r="0.42"/><circle class="cls-1" cx="3.77" cy="7.21" r="0.42"/><circle class="cls-1" cx="3.73" cy="7.22" r="0.42"/><circle class="cls-1" cx="3.69" cy="7.22" r="0.42"/><circle class="cls-1" cx="3.65" cy="7.22" r="0.42"/><circle class="cls-1" cx="3.61" cy="7.23" r="0.42"/><circle class="cls-1" cx="3.57" cy="7.23" r="0.42"/><circle class="cls-1" cx="3.53" cy="7.24" r="0.42"/><circle class="cls-1" cx="3.49" cy="7.24" r="0.42"/><circle class="cls-1" cx="3.45" cy="7.24" r="0.42"/><circle class="cls-1" cx="3.41" cy="7.25" r="0.42"/><circle class="cls-1" cx="3.37" cy="7.25" r="0.42"/><circle class="cls-1" cx="3.33" cy="7.26" r="0.42"/><circle class="cls-1" cx="3.29" cy="7.26" r="0.42"/><circle class="cls-1" cx="3.25" cy="7.26" r="0.42"/><circle class="cls-1" cx="3.21" cy="7.27" r="0.42"/><circle class="cls-1" cx="3.17" cy="7.27" r="0.42"/><circle class="cls-1" cx="3.14" cy="7.28" r="0.42"/><circle class="cls-1" cx="3.1" cy="7.28" r="0.42"/><circle class="cls-1" cx="3.06" cy="7.28" r="0.42"/><circle class="cls-1" cx="3.02" cy="7.29" r="0.42"/><circle class="cls-1" cx="2.98" cy="7.29" r="0.42"/><circle class="cls-1" cx="2.94" cy="7.3" r="0.42"/><circle class="cls-1" cx="2.9" cy="7.3" r="0.42"/><circle class="cls-1" cx="2.86" cy="7.3" r="0.42"/><circle class="cls-1" cx="2.82" cy="7.31" r="0.42"/><circle class="cls-1" cx="2.78" cy="7.31" r="0.42"/><circle class="cls-1" cx="2.74" cy="7.32" r="0.42"/><circle class="cls-1" cx="2.7" cy="7.32" r="0.42"/><circle class="cls-1" cx="2.66" cy="7.32" r="0.42"/><circle class="cls-1" cx="2.62" cy="7.33" r="0.42"/><circle class="cls-1" cx="2.58" cy="7.33" r="0.42"/><circle class="cls-1" cx="2.54" cy="7.34" r="0.42"/><circle class="cls-1" cx="2.5" cy="7.34" r="0.42"/><circle class="cls-1" cx="2.47" cy="7.34" r="0.42"/><circle class="cls-1" cx="2.43" cy="7.35" r="0.42"/><circle class="cls-1" cx="2.39" cy="7.35" r="0.42"/><circle class="cls-1" cx="2.35" cy="7.36" r="0.42"/><circle class="cls-1" cx="2.31" cy="7.36" r="0.42"/><circle class="cls-1" cx="2.27" cy="7.37" r="0.42"/><circle class="cls-1" cx="2.23" cy="7.37" r="0.42"/><circle class="cls-1" cx="2.19" cy="7.37" r="0.42"/><circle class="cls-1" cx="2.15" cy="7.38" r="0.42"/><circle class="cls-1" cx="2.11" cy="7.38" r="0.42"/><circle class="cls-1" cx="2.07" cy="7.39" r="0.42"/><circle class="cls-1" cx="2.03" cy="7.39" r="0.42"/><circle class="cls-1" cx="1.99" cy="7.39" r="0.42"/><circle class="cls-1" cx="1.95" cy="7.4" r="0.42"/><circle class="cls-1" cx="1.91" cy="7.4" r="0.42"/><circle class="cls-1" cx="1.87" cy="7.41" r="0.42"/><circle class="cls-1" cx="1.83" cy="7.41" r="0.42"/><circle class="cls-1" cx="1.79" cy="7.41" r="0.42"/><circle class="cls-1" cx="1.76" cy="7.42" r="0.42"/><circle class="cls-1" cx="1.72" cy="7.42" r="0.42"/><circle class="cls-1" cx="1.68" cy="7.43" r="0.42"/><circle class="cls-1" cx="1.64" cy="7.43" r="0.42"/><circle class="cls-1" cx="1.6" cy="7.43" r="0.42"/><circle class="cls-1" cx="1.56" cy="7.44" r="0.42"/><circle class="cls-1" cx="1.52" cy="7.44" r="0.42"/><circle class="cls-1" cx="1.48" cy="7.45" r="0.42"/><circle class="cls-1" cx="1.44" cy="7.45" r="0.42"/><circle class="cls-1" cx="1.4" cy="7.45" r="0.42"/><circle class="cls-1" cx="1.4" cy="7.45" r="0.42"/><circle class="cls-45" cx="1.52" cy="7.52" r="0.42"/><circle class="cls-46" cx="1.65" cy="7.58" r="0.42"/><circle class="cls-47" cx="1.77" cy="7.64" r="0.42"/><circle class="cls-48" cx="1.89" cy="7.7" r="0.42"/><circle class="cls-49" cx="2.02" cy="7.76" r="0.42"/><circle class="cls-50" cx="2.14" cy="7.83" r="0.42"/><circle class="cls-51" cx="2.26" cy="7.89" r="0.42"/><circle class="cls-52" cx="2.39" cy="7.95" r="0.42"/><circle class="cls-53" cx="2.51" cy="8.01" r="0.42"/><circle class="cls-54" cx="2.63" cy="8.07" r="0.42"/><circle class="cls-55" cx="2.76" cy="8.14" r="0.42"/><circle class="cls-56" cx="2.88" cy="8.2" r="0.42"/><circle class="cls-57" cx="3" cy="8.26" r="0.42"/><circle class="cls-58" cx="3.13" cy="8.32" r="0.42"/><circle class="cls-59" cx="3.25" cy="8.39" r="0.42"/><circle class="cls-60" cx="3.37" cy="8.45" r="0.42"/><circle class="cls-61" cx="3.5" cy="8.51" r="0.42"/><circle class="cls-62" cx="3.62" cy="8.57" r="0.42"/><circle class="cls-63" cx="3.74" cy="8.63" r="0.42"/><circle class="cls-64" cx="3.87" cy="8.7" r="0.42"/><circle class="cls-65" cx="3.99" cy="8.76" r="0.42"/><circle class="cls-66" cx="4.11" cy="8.82" r="0.42"/><circle class="cls-67" cx="4.23" cy="8.88" r="0.42"/><circle class="cls-68" cx="4.36" cy="8.94" r="0.42"/><circle class="cls-69" cx="4.48" cy="9.01" r="0.42"/><circle class="cls-70" cx="4.6" cy="9.07" r="0.42"/><circle class="cls-71" cx="4.73" cy="9.13" r="0.42"/><circle class="cls-72" cx="4.85" cy="9.19" r="0.42"/><circle class="cls-73" cx="4.97" cy="9.25" r="0.42"/><circle class="cls-74" cx="5.1" cy="9.32" r="0.42"/><circle class="cls-75" cx="5.22" cy="9.38" r="0.42"/><circle class="cls-76" cx="5.34" cy="9.44" r="0.42"/><circle class="cls-77" cx="5.47" cy="9.5" r="0.42"/><circle class="cls-78" cx="5.59" cy="9.56" r="0.42"/><circle class="cls-79" cx="5.71" cy="9.63" r="0.42"/><circle class="cls-80" cx="5.84" cy="9.69" r="0.42"/><circle class="cls-81" cx="5.96" cy="9.75" r="0.42"/><circle class="cls-82" cx="6.08" cy="9.81" r="0.42"/><circle class="cls-83" cx="6.21" cy="9.87" r="0.42"/><circle class="cls-84" cx="6.33" cy="9.94" r="0.42"/><circle class="cls-85" cx="6.45" cy="10" r="0.42"/><circle class="cls-86" cx="6.58" cy="10.06" r="0.42"/><circle class="cls-87" cx="6.7" cy="10.12" r="0.42"/><circle class="cls-88" cx="6.82" cy="10.19" r="0.42"/><circle class="cls-89" cx="6.95" cy="10.25" r="0.42"/><circle class="cls-90" cx="7.07" cy="10.31" r="0.42"/><circle class="cls-91" cx="7.19" cy="10.37" r="0.42"/><circle class="cls-92" cx="7.32" cy="10.43" r="0.42"/><circle class="cls-93" cx="7.44" cy="10.5" r="0.42"/><circle class="cls-94" cx="7.56" cy="10.56" r="0.42"/><circle class="cls-95" cx="7.68" cy="10.62" r="0.42"/><circle class="cls-96" cx="7.81" cy="10.68" r="0.42"/><circle class="cls-97" cx="7.93" cy="10.74" r="0.42"/><circle class="cls-98" cx="8.05" cy="10.81" r="0.42"/><circle class="cls-99" cx="8.18" cy="10.87" r="0.42"/><circle class="cls-100" cx="8.3" cy="10.93" r="0.42"/><circle class="cls-101" cx="8.42" cy="10.99" r="0.42"/><circle class="cls-102" cx="8.55" cy="11.05" r="0.42"/><circle class="cls-103" cx="8.67" cy="11.12" r="0.42"/><circle class="cls-104" cx="8.79" cy="11.18" r="0.42"/><circle class="cls-105" cx="8.92" cy="11.24" r="0.42"/><circle class="cls-106" cx="9.04" cy="11.3" r="0.42"/><circle class="cls-107" cx="9.16" cy="11.36" r="0.42"/><circle class="cls-108" cx="9.29" cy="11.43" r="0.42"/><circle class="cls-109" cx="9.41" cy="11.49" r="0.42"/><circle class="cls-110" cx="9.53" cy="11.55" r="0.42"/><circle class="cls-111" cx="9.66" cy="11.61" r="0.42"/><circle class="cls-112" cx="9.78" cy="11.67" r="0.42"/><circle class="cls-113" cx="9.9" cy="11.74" r="0.42"/><circle class="cls-114" cx="10.03" cy="11.8" r="0.42"/><circle class="cls-115" cx="10.15" cy="11.86" r="0.42"/><circle class="cls-116" cx="10.27" cy="11.92" r="0.42"/><circle class="cls-117" cx="10.4" cy="11.99" r="0.42"/><circle class="cls-118" cx="10.52" cy="12.05" r="0.42"/><circle class="cls-119" cx="10.64" cy="12.11" r="0.42"/><circle class="cls-120" cx="10.77" cy="12.17" r="0.42"/><circle class="cls-121" cx="10.89" cy="12.23" r="0.42"/><circle class="cls-122" cx="11.01" cy="12.3" r="0.42"/><circle class="cls-123" cx="11.13" cy="12.36" r="0.42"/><circle class="cls-124" cx="11.26" cy="12.42" r="0.42"/><circle class="cls-125" cx="11.38" cy="12.48" r="0.42"/><circle class="cls-126" cx="11.5" cy="12.54" r="0.42"/><circle class="cls-127" cx="11.63" cy="12.61" r="0.42"/><circle class="cls-128" cx="11.75" cy="12.67" r="0.42"/><circle class="cls-129" cx="11.87" cy="12.73" r="0.42"/><circle class="cls-130" cx="12" cy="12.79" r="0.42"/><circle class="cls-131" cx="12.12" cy="12.85" r="0.42"/><circle class="cls-132" cx="12.24" cy="12.92" r="0.42"/><circle class="cls-133" cx="12.37" cy="12.98" r="0.42"/><circle class="cls-134" cx="12.49" cy="13.04" r="0.42"/><circle class="cls-135" cx="12.61" cy="13.1" r="0.42"/><circle class="cls-136" cx="12.74" cy="13.16" r="0.42"/><circle class="cls-137" cx="12.86" cy="13.23" r="0.42"/><circle class="cls-138" cx="12.98" cy="13.29" r="0.42"/><circle class="cls-139" cx="13.11" cy="13.35" r="0.42"/><circle class="cls-140" cx="13.23" cy="13.41" r="0.42"/><circle class="cls-141" cx="13.35" cy="13.48" r="0.42"/><circle class="cls-142" cx="13.48" cy="13.54" r="0.42"/><circle class="cls-143" cx="13.6" cy="13.6" r="0.42"/><circle class="cls-144" cx="13.6" cy="1.4" r="0.42"/><circle class="cls-145" cx="13.5" cy="1.52" r="0.42"/><circle class="cls-146" cx="13.4" cy="1.64" r="0.42"/><circle class="cls-147" cx="13.3" cy="1.77" r="0.42"/><circle class="cls-148" cx="13.2" cy="1.89" r="0.42"/><circle class="cls-149" cx="13.1" cy="2.01" r="0.42"/><circle class="cls-150" cx="13" cy="2.13" r="0.42"/><circle class="cls-151" cx="12.9" cy="2.25" r="0.42"/><circle class="cls-152" cx="12.8" cy="2.38" r="0.42"/><circle class="cls-153" cx="12.7" cy="2.5" r="0.42"/><circle class="cls-154" cx="12.61" cy="2.62" r="0.42"/><circle class="cls-155" cx="12.51" cy="2.74" r="0.42"/><circle class="cls-156" cx="12.41" cy="2.86" r="0.42"/><circle class="cls-157" cx="12.31" cy="2.99" r="0.42"/><circle class="cls-158" cx="12.21" cy="3.11" r="0.42"/><circle class="cls-159" cx="12.11" cy="3.23" r="0.42"/><circle class="cls-160" cx="12.01" cy="3.35" r="0.42"/><circle class="cls-161" cx="11.91" cy="3.47" r="0.42"/><circle class="cls-162" cx="11.81" cy="3.6" r="0.42"/><circle class="cls-163" cx="11.71" cy="3.72" r="0.42"/><circle class="cls-164" cx="11.61" cy="3.84" r="0.42"/><circle class="cls-165" cx="11.51" cy="3.96" r="0.42"/><circle class="cls-166" cx="11.41" cy="4.08" r="0.42"/><circle class="cls-167" cx="11.31" cy="4.2" r="0.42"/><circle class="cls-168" cx="11.21" cy="4.33" r="0.42"/><circle class="cls-169" cx="11.11" cy="4.45" r="0.42"/><circle class="cls-170" cx="11.01" cy="4.57" r="0.42"/><circle class="cls-171" cx="10.92" cy="4.69" r="0.42"/><circle class="cls-172" cx="10.82" cy="4.81" r="0.42"/><circle class="cls-173" cx="10.72" cy="4.94" r="0.42"/><circle class="cls-174" cx="10.62" cy="5.06" r="0.42"/><circle class="cls-175" cx="10.52" cy="5.18" r="0.42"/><circle class="cls-176" cx="10.42" cy="5.3" r="0.42"/><circle class="cls-177" cx="10.32" cy="5.42" r="0.42"/><circle class="cls-178" cx="10.22" cy="5.55" r="0.42"/><circle class="cls-179" cx="10.12" cy="5.67" r="0.42"/><circle class="cls-180" cx="10.02" cy="5.79" r="0.42"/><circle class="cls-181" cx="9.92" cy="5.91" r="0.42"/><circle class="cls-182" cx="9.82" cy="6.03" r="0.42"/><circle class="cls-183" cx="9.72" cy="6.16" r="0.42"/><circle class="cls-184" cx="9.62" cy="6.28" r="0.42"/><circle class="cls-185" cx="9.52" cy="6.4" r="0.42"/><circle class="cls-186" cx="9.42" cy="6.52" r="0.42"/><circle class="cls-1" cx="9.32" cy="6.64" r="0.42"/><circle class="cls-187" cx="9.4" cy="6.76" r="0.42"/><circle class="cls-188" cx="9.47" cy="6.89" r="0.42"/><circle class="cls-189" cx="9.55" cy="7.01" r="0.42"/><circle class="cls-51" cx="9.62" cy="7.13" r="0.42"/><circle class="cls-190" cx="9.7" cy="7.25" r="0.42"/><circle class="cls-191" cx="9.77" cy="7.38" r="0.42"/><circle class="cls-56" cx="9.85" cy="7.5" r="0.42"/><circle class="cls-192" cx="9.92" cy="7.62" r="0.42"/><circle class="cls-193" cx="10" cy="7.74" r="0.42"/><circle class="cls-194" cx="10.07" cy="7.86" r="0.42"/><circle class="cls-195" cx="10.15" cy="7.99" r="0.42"/><circle class="cls-65" cx="10.22" cy="8.11" r="0.42"/><circle class="cls-196" cx="10.3" cy="8.23" r="0.42"/><circle class="cls-197" cx="10.37" cy="8.35" r="0.42"/><circle class="cls-70" cx="10.45" cy="8.47" r="0.42"/><circle class="cls-72" cx="10.52" cy="8.6" r="0.42"/><circle class="cls-198" cx="10.6" cy="8.72" r="0.42"/><circle class="cls-199" cx="10.67" cy="8.84" r="0.42"/><circle class="cls-77" cx="10.75" cy="8.96" r="0.42"/><circle class="cls-200" cx="10.82" cy="9.08" r="0.42"/><circle class="cls-201" cx="10.9" cy="9.21" r="0.42"/><circle class="cls-202" cx="10.97" cy="9.33" r="0.42"/><circle class="cls-84" cx="11.05" cy="9.45" r="0.42"/><circle class="cls-203" cx="11.12" cy="9.57" r="0.42"/><circle class="cls-204" cx="11.2" cy="9.69" r="0.42"/><circle class="cls-205" cx="11.27" cy="9.82" r="0.42"/><circle class="cls-206" cx="11.35" cy="9.94" r="0.42"/><circle class="cls-207" cx="11.42" cy="10.06" r="0.42"/><circle class="cls-208" cx="11.5" cy="10.18" r="0.42"/><circle class="cls-209" cx="11.57" cy="10.3" r="0.42"/><circle class="cls-210" cx="11.65" cy="10.43" r="0.42"/><circle class="cls-211" cx="11.72" cy="10.55" r="0.42"/><circle class="cls-212" cx="11.8" cy="10.67" r="0.42"/><circle class="cls-103" cx="11.87" cy="10.79" r="0.42"/><circle class="cls-213" cx="11.95" cy="10.91" r="0.42"/><circle class="cls-214" cx="12.02" cy="11.04" r="0.42"/><circle class="cls-215" cx="12.1" cy="11.16" r="0.42"/><circle class="cls-110" cx="12.17" cy="11.28" r="0.42"/><circle class="cls-216" cx="12.25" cy="11.4" r="0.42"/><circle class="cls-217" cx="12.32" cy="11.52" r="0.42"/><circle class="cls-115" cx="12.4" cy="11.65" r="0.42"/><circle class="cls-117" cx="12.47" cy="11.77" r="0.42"/><circle class="cls-218" cx="12.55" cy="11.89" r="0.42"/><circle class="cls-219" cx="12.62" cy="12.01" r="0.42"/><circle class="cls-122" cx="12.7" cy="12.13" r="0.42"/><circle class="cls-220" cx="12.77" cy="12.26" r="0.42"/><circle class="cls-221" cx="12.85" cy="12.38" r="0.42"/><circle class="cls-222" cx="12.92" cy="12.5" r="0.42"/><circle class="cls-223" cx="13" cy="12.62" r="0.42"/><circle class="cls-131" cx="13.07" cy="12.74" r="0.42"/><circle class="cls-224" cx="13.15" cy="12.87" r="0.42"/><circle class="cls-225" cx="13.22" cy="12.99" r="0.42"/><circle class="cls-136" cx="13.3" cy="13.11" r="0.42"/><circle class="cls-226" cx="13.37" cy="13.23" r="0.42"/><circle class="cls-227" cx="13.45" cy="13.36" r="0.42"/><circle class="cls-228" cx="13.52" cy="13.48" r="0.42"/><circle class="cls-143" cx="13.6" cy="13.6" r="0.42"/><circle class="cls-229" cx="13.6" cy="13.48" r="0.42"/><circle class="cls-230" cx="13.6" cy="13.35" r="0.42"/><circle class="cls-231" cx="13.6" cy="13.23" r="0.42"/><circle class="cls-232" cx="13.6" cy="13.11" r="0.42"/><circle class="cls-233" cx="13.6" cy="12.98" r="0.42"/><circle class="cls-234" cx="13.6" cy="12.86" r="0.42"/><circle class="cls-235" cx="13.6" cy="12.74" r="0.42"/><circle class="cls-236" cx="13.6" cy="12.61" r="0.42"/><circle class="cls-237" cx="13.6" cy="12.49" r="0.42"/><circle class="cls-238" cx="13.6" cy="12.37" r="0.42"/><circle class="cls-239" cx="13.6" cy="12.24" r="0.42"/><circle class="cls-240" cx="13.6" cy="12.12" r="0.42"/><circle class="cls-241" cx="13.6" cy="12" r="0.42"/><circle class="cls-242" cx="13.6" cy="11.87" r="0.42"/><circle class="cls-243" cx="13.6" cy="11.75" r="0.42"/><circle class="cls-244" cx="13.6" cy="11.63" r="0.42"/><circle class="cls-245" cx="13.6" cy="11.5" r="0.42"/><circle class="cls-246" cx="13.6" cy="11.38" r="0.42"/><circle class="cls-247" cx="13.6" cy="11.26" r="0.42"/><circle class="cls-248" cx="13.6" cy="11.13" r="0.42"/><circle class="cls-249" cx="13.6" cy="11.01" r="0.42"/><circle class="cls-250" cx="13.6" cy="10.89" r="0.42"/><circle class="cls-251" cx="13.6" cy="10.77" r="0.42"/><circle class="cls-252" cx="13.6" cy="10.64" r="0.42"/><circle class="cls-253" cx="13.6" cy="10.52" r="0.42"/><circle class="cls-254" cx="13.6" cy="10.4" r="0.42"/><circle class="cls-255" cx="13.6" cy="10.27" r="0.42"/><circle class="cls-256" cx="13.6" cy="10.15" r="0.42"/><circle class="cls-257" cx="13.6" cy="10.03" r="0.42"/><circle class="cls-258" cx="13.6" cy="9.9" r="0.42"/><circle class="cls-259" cx="13.6" cy="9.78" r="0.42"/><circle class="cls-260" cx="13.6" cy="9.66" r="0.42"/><circle class="cls-261" cx="13.6" cy="9.53" r="0.42"/><circle class="cls-262" cx="13.6" cy="9.41" r="0.42"/><circle class="cls-263" cx="13.6" cy="9.29" r="0.42"/><circle class="cls-264" cx="13.6" cy="9.16" r="0.42"/><circle class="cls-265" cx="13.6" cy="9.04" r="0.42"/><circle class="cls-266" cx="13.6" cy="8.92" r="0.42"/><circle class="cls-267" cx="13.6" cy="8.79" r="0.42"/><circle class="cls-268" cx="13.6" cy="8.67" r="0.42"/><circle class="cls-269" cx="13.6" cy="8.55" r="0.42"/><circle class="cls-270" cx="13.6" cy="8.42" r="0.42"/><circle class="cls-271" cx="13.6" cy="8.3" r="0.42"/><circle class="cls-272" cx="13.6" cy="8.18" r="0.42"/><circle class="cls-273" cx="13.6" cy="8.05" r="0.42"/><circle class="cls-274" cx="13.6" cy="7.93" r="0.42"/><circle class="cls-275" cx="13.6" cy="7.81" r="0.42"/><circle class="cls-276" cx="13.6" cy="7.68" r="0.42"/><circle class="cls-277" cx="13.6" cy="7.56" r="0.42"/><circle class="cls-278" cx="13.6" cy="7.44" r="0.42"/><circle class="cls-279" cx="13.6" cy="7.32" r="0.42"/><circle class="cls-280" cx="13.6" cy="7.19" r="0.42"/><circle class="cls-281" cx="13.6" cy="7.07" r="0.42"/><circle class="cls-282" cx="13.6" cy="6.95" r="0.42"/><circle class="cls-283" cx="13.6" cy="6.82" r="0.42"/><circle class="cls-284" cx="13.6" cy="6.7" r="0.42"/><circle class="cls-285" cx="13.6" cy="6.58" r="0.42"/><circle class="cls-286" cx="13.6" cy="6.45" r="0.42"/><circle class="cls-287" cx="13.6" cy="6.33" r="0.42"/><circle class="cls-288" cx="13.6" cy="6.21" r="0.42"/><circle class="cls-289" cx="13.6" cy="6.08" r="0.42"/><circle class="cls-290" cx="13.6" cy="5.96" r="0.42"/><circle class="cls-291" cx="13.6" cy="5.84" r="0.42"/><circle class="cls-292" cx="13.6" cy="5.71" r="0.42"/><circle class="cls-293" cx="13.6" cy="5.59" r="0.42"/><circle class="cls-294" cx="13.6" cy="5.47" r="0.42"/><circle class="cls-295" cx="13.6" cy="5.34" r="0.42"/><circle class="cls-296" cx="13.6" cy="5.22" r="0.42"/><circle class="cls-297" cx="13.6" cy="5.1" r="0.42"/><circle class="cls-298" cx="13.6" cy="4.97" r="0.42"/><circle class="cls-299" cx="13.6" cy="4.85" r="0.42"/><circle class="cls-300" cx="13.6" cy="4.73" r="0.42"/><circle class="cls-301" cx="13.6" cy="4.6" r="0.42"/><circle class="cls-302" cx="13.6" cy="4.48" r="0.42"/><circle class="cls-303" cx="13.6" cy="4.36" r="0.42"/><circle class="cls-304" cx="13.6" cy="4.23" r="0.42"/><circle class="cls-305" cx="13.6" cy="4.11" r="0.42"/><circle class="cls-306" cx="13.6" cy="3.99" r="0.42"/><circle class="cls-307" cx="13.6" cy="3.87" r="0.42"/><circle class="cls-308" cx="13.6" cy="3.74" r="0.42"/><circle class="cls-309" cx="13.6" cy="3.62" r="0.42"/><circle class="cls-310" cx="13.6" cy="3.5" r="0.42"/><circle class="cls-311" cx="13.6" cy="3.37" r="0.42"/><circle class="cls-312" cx="13.6" cy="3.25" r="0.42"/><circle class="cls-313" cx="13.6" cy="3.13" r="0.42"/><circle class="cls-314" cx="13.6" cy="3" r="0.42"/><circle class="cls-315" cx="13.6" cy="2.88" r="0.42"/><circle class="cls-316" cx="13.6" cy="2.76" r="0.42"/><circle class="cls-317" cx="13.6" cy="2.63" r="0.42"/><circle class="cls-318" cx="13.6" cy="2.51" r="0.42"/><circle class="cls-319" cx="13.6" cy="2.39" r="0.42"/><circle class="cls-320" cx="13.6" cy="2.26" r="0.42"/><circle class="cls-321" cx="13.6" cy="2.14" r="0.42"/><circle class="cls-322" cx="13.6" cy="2.02" r="0.42"/><circle class="cls-323" cx="13.6" cy="1.89" r="0.42"/><circle class="cls-324" cx="13.6" cy="1.77" r="0.42"/><circle class="cls-325" cx="13.6" cy="1.65" r="0.42"/><circle class="cls-326" cx="13.6" cy="1.52" r="0.42"/><circle class="cls-144" cx="13.6" cy="1.4" r="0.42"/><circle class="cls-327" cx="13.48" cy="1.4" r="0.42"/><circle class="cls-328" cx="13.36" cy="1.4" r="0.42"/><circle class="cls-329" cx="13.23" cy="1.4" r="0.42"/><circle class="cls-330" cx="13.11" cy="1.4" r="0.42"/><circle class="cls-331" cx="12.99" cy="1.4" r="0.42"/><circle class="cls-332" cx="12.87" cy="1.4" r="0.42"/><circle class="cls-333" cx="12.75" cy="1.4" r="0.42"/><circle class="cls-334" cx="12.62" cy="1.4" r="0.42"/><circle class="cls-335" cx="12.5" cy="1.4" r="0.42"/><circle class="cls-336" cx="12.38" cy="1.4" r="0.42"/><circle class="cls-337" cx="12.26" cy="1.4" r="0.42"/><circle class="cls-338" cx="12.14" cy="1.4" r="0.42"/><circle class="cls-339" cx="12.01" cy="1.4" r="0.42"/><circle class="cls-340" cx="11.89" cy="1.4" r="0.42"/><circle class="cls-341" cx="11.77" cy="1.4" r="0.42"/><circle class="cls-342" cx="11.65" cy="1.4" r="0.42"/><circle class="cls-343" cx="11.53" cy="1.4" r="0.42"/><circle class="cls-344" cx="11.4" cy="1.4" r="0.42"/><circle class="cls-345" cx="11.28" cy="1.4" r="0.42"/><circle class="cls-346" cx="11.16" cy="1.4" r="0.42"/><circle class="cls-347" cx="11.04" cy="1.4" r="0.42"/><circle class="cls-348" cx="10.92" cy="1.4" r="0.42"/><circle class="cls-349" cx="10.79" cy="1.4" r="0.42"/><circle class="cls-350" cx="10.67" cy="1.4" r="0.42"/><circle class="cls-351" cx="10.55" cy="1.4" r="0.42"/><circle class="cls-352" cx="10.43" cy="1.4" r="0.42"/><circle class="cls-353" cx="10.31" cy="1.4" r="0.42"/><circle class="cls-354" cx="10.18" cy="1.4" r="0.42"/><circle class="cls-355" cx="10.06" cy="1.4" r="0.42"/><circle class="cls-356" cx="9.94" cy="1.4" r="0.42"/><circle class="cls-357" cx="9.82" cy="1.4" r="0.42"/><circle class="cls-358" cx="9.7" cy="1.4" r="0.42"/><circle class="cls-359" cx="9.57" cy="1.4" r="0.42"/><circle class="cls-360" cx="9.45" cy="1.4" r="0.42"/><circle class="cls-361" cx="9.33" cy="1.4" r="0.42"/><circle class="cls-362" cx="9.21" cy="1.4" r="0.42"/><circle class="cls-363" cx="9.09" cy="1.4" r="0.42"/><circle class="cls-364" cx="8.96" cy="1.4" r="0.42"/><circle class="cls-365" cx="8.84" cy="1.4" r="0.42"/><circle class="cls-366" cx="8.72" cy="1.4" r="0.42"/><circle class="cls-367" cx="8.6" cy="1.4" r="0.42"/><circle class="cls-368" cx="8.48" cy="1.4" r="0.42"/><circle class="cls-369" cx="8.35" cy="1.4" r="0.42"/><circle class="cls-370" cx="8.23" cy="1.4" r="0.42"/><circle class="cls-371" cx="8.11" cy="1.4" r="0.42"/><circle class="cls-372" cx="7.99" cy="1.4" r="0.42"/><circle class="cls-373" cx="7.87" cy="1.4" r="0.42"/><circle class="cls-374" cx="7.74" cy="1.4" r="0.42"/><circle class="cls-375" cx="7.62" cy="1.4" r="0.42"/><circle class="cls-44" cx="7.5" cy="1.4" r="0.42"/><circle class="cls-376" cx="7.38" cy="1.52" r="0.42"/><circle class="cls-377" cx="7.26" cy="1.64" r="0.42"/><circle class="cls-378" cx="7.13" cy="1.76" r="0.42"/><circle class="cls-379" cx="7.01" cy="1.88" r="0.42"/><circle class="cls-380" cx="6.89" cy="2.01" r="0.42"/><circle class="cls-381" cx="6.77" cy="2.13" r="0.42"/><circle class="cls-38" cx="6.65" cy="2.25" r="0.42"/><circle class="cls-382" cx="6.52" cy="2.37" r="0.42"/><circle class="cls-383" cx="6.4" cy="2.49" r="0.42"/><circle class="cls-384" cx="6.28" cy="2.61" r="0.42"/><circle class="cls-385" cx="6.16" cy="2.73" r="0.42"/><circle class="cls-386" cx="6.04" cy="2.85" r="0.42"/><circle class="cls-387" cx="5.91" cy="2.97" r="0.42"/><circle class="cls-388" cx="5.79" cy="3.1" r="0.42"/><circle class="cls-389" cx="5.67" cy="3.22" r="0.42"/><circle class="cls-390" cx="5.55" cy="3.34" r="0.42"/><circle class="cls-391" cx="5.43" cy="3.46" r="0.42"/><circle class="cls-392" cx="5.3" cy="3.58" r="0.42"/><circle class="cls-393" cx="5.18" cy="3.7" r="0.42"/><circle class="cls-394" cx="5.06" cy="3.82" r="0.42"/><circle class="cls-395" cx="4.94" cy="3.94" r="0.42"/><circle class="cls-25" cx="4.82" cy="4.06" r="0.42"/><circle class="cls-396" cx="4.69" cy="4.19" r="0.42"/><circle class="cls-397" cx="4.57" cy="4.31" r="0.42"/><circle class="cls-398" cx="4.45" cy="4.43" r="0.42"/><circle class="cls-399" cx="4.33" cy="4.55" r="0.42"/><circle class="cls-400" cx="4.21" cy="4.67" r="0.42"/><circle class="cls-20" cx="4.08" cy="4.79" r="0.42"/><circle class="cls-401" cx="3.96" cy="4.91" r="0.42"/><circle class="cls-402" cx="3.84" cy="5.03" r="0.42"/><circle class="cls-403" cx="3.72" cy="5.15" r="0.42"/><circle class="cls-404" cx="3.6" cy="5.27" r="0.42"/><circle class="cls-405" cx="3.47" cy="5.4" r="0.42"/><circle class="cls-406" cx="3.35" cy="5.52" r="0.42"/><circle class="cls-407" cx="3.23" cy="5.64" r="0.42"/><circle class="cls-408" cx="3.11" cy="5.76" r="0.42"/><circle class="cls-409" cx="2.99" cy="5.88" r="0.42"/><circle class="cls-410" cx="2.86" cy="6" r="0.42"/><circle class="cls-411" cx="2.74" cy="6.12" r="0.42"/><circle class="cls-412" cx="2.62" cy="6.24" r="0.42"/><circle class="cls-413" cx="2.5" cy="6.36" r="0.42"/><circle class="cls-414" cx="2.38" cy="6.49" r="0.42"/><circle class="cls-7" cx="2.25" cy="6.61" r="0.42"/><circle class="cls-415" cx="2.13" cy="6.73" r="0.42"/><circle class="cls-416" cx="2.01" cy="6.85" r="0.42"/><circle class="cls-417" cx="1.89" cy="6.97" r="0.42"/><circle class="cls-418" cx="1.77" cy="7.09" r="0.42"/><circle class="cls-419" cx="1.64" cy="7.21" r="0.42"/><circle class="cls-420" cx="1.52" cy="7.33" r="0.42"/><circle class="cls-1" cx="1.4" cy="7.45" r="0.42"/><circle class="cls-44" cx="7.5" cy="1.4" r="1.4"/><circle class="cls-44" cx="7.5" cy="1.4" r="0.42"/><circle class="cls-1" cx="9.32" cy="6.64" r="1.86"/><circle class="cls-1" cx="9.32" cy="6.64" r="0.42"/><circle class="cls-1" cx="9.32" cy="6.64" r="0.42"/><circle class="cls-1" cx="9.32" cy="6.64" r="0.42"/><circle class="cls-1" cx="9.32" cy="6.64" r="0.42"/><circle class="cls-1" cx="1.4" cy="7.45" r="1.4"/><circle class="cls-1" cx="1.4" cy="7.45" r="0.42"/><circle class="cls-143" cx="13.6" cy="13.6" r="1.4"/><circle class="cls-143" cx="13.6" cy="13.6" r="0.42"/><circle class="cls-144" cx="13.6" cy="1.4" r="1.4"/><circle class="cls-144" cx="13.6" cy="1.4" r="0.42"/><circle class="cls-144" cx="13.6" cy="1.4" r="0.42"/></svg>