<svg xmlns="http://www.w3.org/2000/svg" xmlns:xlink="http://www.w3.org/1999/xlink" viewBox="0 0 281 32"><defs><style>.cls-1{font-size:30px;font-family:MicrosoftYaHei, Microsoft YaHei;letter-spacing:0.04em;}.cls-2{fill:url(#未命名的渐变_100);}</style><linearGradient id="未命名的渐变_100" x1="31.28" y1="-43.85" x2="246.63" y2="80.48" gradientUnits="userSpaceOnUse"><stop offset="0" stop-color="#01c2f2"/><stop offset="0.05" stop-color="#06c3f2"/><stop offset="0.11" stop-color="#14c7f3"/><stop offset="0.18" stop-color="#2cccf4"/><stop offset="0.25" stop-color="#4ed4f6"/><stop offset="0.32" stop-color="#79dff8"/><stop offset="0.4" stop-color="#aeebfb"/><stop offset="0.48" stop-color="#ebfafe"/><stop offset="0.5" stop-color="#fff"/><stop offset="0.52" stop-color="#fffcf1"/><stop offset="0.59" stop-color="#feeeb2"/><stop offset="0.67" stop-color="#fee17c"/><stop offset="0.75" stop-color="#fed750"/><stop offset="0.82" stop-color="#fdcf2d"/><stop offset="0.89" stop-color="#fdca14"/><stop offset="0.95" stop-color="#fdc605"/><stop offset="1" stop-color="#fdc500"/></linearGradient></defs><title>meeting title</title><g id="图层_1" data-name="图层 1"><text class="cls-1" transform="translate(-0.01 26.51)">微软技术暨生态大会</text><path class="cls-2" d="M.37,18.88A36.66,36.66,0,0,0,6,9.76l1.93.91Q6.84,13,5.67,14.95V30.33h-2V18a33.21,33.21,0,0,1-2.55,3.19Q.78,20,.37,18.88ZM.51,9.44A28.32,28.32,0,0,0,6,1.8l1.82,1a34.67,34.67,0,0,1-6.65,8.91Q.89,10.58.51,9.44Zm14.74,11.4H11.38v1.35q0,5.27-3,7.5A20.27,20.27,0,0,0,7.1,27.81Q9.42,26.29,9.42,22V18.85h7.79v5.1q1.35-1.17,3.08-2.75.26,1.29.5,2.26-1.61,1.29-3.66,3.16-.64.62-1.17,1.17l-1.49-1.87a2.85,2.85,0,0,0,.79-2.11ZM8.48,11.49V4.31h1.87V9.5h2.4V2.06h1.93V9.5h2.4V4.29H19v8.14H17.09v-.94Zm.59,2.61h9.32v2.05H9.07ZM22.37,1.65l2,.35q-.47,2.71-1.1,5.16h6.31V9.27H28.17q-.62,8.39-2.83,13.29a18.16,18.16,0,0,0,4.41,5.58q-.64,1.14-1.23,2.26a22.8,22.8,0,0,1-4.29-5.68,29.31,29.31,0,0,1-4.53,5.89,23.06,23.06,0,0,0-1.44-1.85,24.39,24.39,0,0,0,4.92-6.3,29.85,29.85,0,0,1-2-9.13q-.47,1.13-1,2.18A12.48,12.48,0,0,0,18.79,14,38.2,38.2,0,0,0,22.37,1.65Zm3.81,7.62H22.66l-.09.28a31.42,31.42,0,0,0,1.68,10.52A46.51,46.51,0,0,0,26.18,9.27Z"/><path class="cls-2" d="M34.73,15.36H38.3V9.44h2.05v5.92h4v1.93h-4v4.44l4.78-.57q-.15,1.11-.21,2.05-2.17.23-4.57.53v6.62H38.3V24L32,24.79l-.26-2.2q3.4-.32,6.59-.66V17.29H32.53V15.45Q34.16,11.32,35.29,8H32.18V6h3.74q.82-2.64,1.27-4.69l2.34.47Q38.85,4,38.14,6h6.11V8H37.48Q36.15,11.79,34.73,15.36ZM50.29,9.79h2.29q0,3-.12,5.62,2.3,10,8.67,12.92l-1.85,2q-5.33-3-7.63-10.53-1.57,6.64-8.42,10.74-.67-1-1.49-1.93,8-4.39,8.47-13.07Q50.29,13.75,50.29,9.79ZM43,13A43.79,43.79,0,0,0,48.32,1.36L50.64,2Q49.83,4.26,49,6.31H60.48v2l-3,5.65-2.29-.5,2.64-5.1h-9.7A52,52,0,0,1,45,14.25Q44.11,13.69,43,13Z"/><path class="cls-2" d="M62.74,17.09,67,15.84V9.53h-3.9v-2H67V1.82h2.26V7.51H72.7v2H69.27v5.61l3.28-1.07q0,1.41.06,2.29l-3.34,1.07v9.45q0,3.11-2.93,3.13-1.17,0-2.81,0-.18-1.23-.38-2.49,1.73.18,2.61.18,1.26,0,1.26-1.32v-8.2l-4,1.35Zm10.87-2.17V13h7.53V8.5H73.49V6.37h7.65V1.65h2.34V6.37h8V8.5h-8V13h6.24v1.76a23.76,23.76,0,0,1-5.87,9.49,23.12,23.12,0,0,0,8.16,4q-1.11,1.29-1.87,2.26a30.18,30.18,0,0,1-8.07-4.7,38.24,38.24,0,0,1-9,4.94A24.75,24.75,0,0,0,71.5,28.6a31.78,31.78,0,0,0,8.94-4.39,22.59,22.59,0,0,1-4.88-9.29Zm13.56,0H77.81a18.27,18.27,0,0,0,4.39,7.82A18.79,18.79,0,0,0,87.17,14.92Z"/><path class="cls-2" d="M123.35,24.59q-1.05,1.2-1.87,2.34a35.9,35.9,0,0,1-11.69-14.6V30.45h-2.34V12.27a41.35,41.35,0,0,1-12,15q-.67-.94-1.7-2.23a42.46,42.46,0,0,0,12.54-14.3H94.7V8.62h12.74V1.53h2.34V8.62h12.8v2.17H110.86Q115.73,20.34,123.35,24.59Zm-10.69-21L114.15,2a59.3,59.3,0,0,1,5,3.84l-1.64,1.82Q115.12,5.46,112.66,3.61Z"/><path class="cls-2" d="M125.55,27.58H154.2v1.61H125.55Zm9.84-16.52q1.35,1.52,2.93,3.66l-1.67,1q-.32-.44-.7-1-3.37.94-6.5,1.87a6.09,6.09,0,0,0-1.52.73l-1-1.85a1.4,1.4,0,0,0,.7-1.26V3h11.22v8.61h-2v-.64h-7.27V14.6q3.16-.82,5.13-1.38-.59-.79-1-1.26Zm-5.92,6.33H139a14.28,14.28,0,0,0-1.2-1.52q5.86-2,7.12-5.27h-4.78V9.18l.73-3.78h1.93L142.19,9h3.13a25.21,25.21,0,0,0,.32-4.25h-5.36V3.17h12.19V4.75H147.7A31.86,31.86,0,0,1,147.43,9h5.83v1.58h-6.21q-.18.53-.38,1h1.76v2.05q0,1.05,1.2,1.05h.82q1.29,0,1.29-2.23,1.05.29,2,.53-.18,3.52-2.87,3.52H149q-2.52,0-2.52-2.29V11.93q-1.85,3.57-7.06,5.45H150v9.08h-2.17v-.88H131.64v.88h-2.17Zm7.44-13h-7.27v1.9h7.27Zm0,5.16V7.63h-7.27v1.9Zm10.87,9.4H131.64v1.79h16.14ZM131.64,24h16.14V22.22H131.64Z"/><path class="cls-2" d="M156.57,26.43h13.59V19H159.79V16.71h10.37V9.94h-7.73a35,35,0,0,1-4.48,6.36,16.19,16.19,0,0,0-1.58-2.05A34.08,34.08,0,0,0,162.9,2.94l2.4.64q-.78,2.14-1.71,4.1h6.58V1.47h2.52V7.68h11.19V9.94H172.68v6.77h10.37V19H172.68v7.47h12.77v2.2H156.57Z"/><path class="cls-2" d="M188.71,5.72h12a19.27,19.27,0,0,0,.38-4.19h2.2A22.45,22.45,0,0,1,203,5.72h12.67V7.8H203.72q4.17,6,12.67,8.2a16.42,16.42,0,0,0-1.64,2.26q-8.63-3-12.7-9.43a12.49,12.49,0,0,1-2.74,3.84q2.3,1.58,4.45,3.25l-1.46,1.73Q200.44,16,197.78,14A34,34,0,0,1,189,18.52a12.37,12.37,0,0,0-1.29-2.23q10-3.22,12.36-8.5H188.71Zm2.29,14,2.2.7a64.33,64.33,0,0,1-2.9,7.47,19.28,19.28,0,0,0-2.2-.85A37.42,37.42,0,0,0,191,19.73Zm4.22-.47h2.29v6.3a1.55,1.55,0,0,0,1.76,1.76h5.57q1.93,0,2.31-1.44a27.67,27.67,0,0,0,.59-4.19q.82.35,2.26.85a34.79,34.79,0,0,1-.73,4.19q-.67,2.67-3.93,2.67h-6.47q-3.63,0-3.63-3.69Zm4.13.21L200.84,18q2.37,1.9,4.39,3.84l-1.7,1.64Q201.69,21.54,199.34,19.46Zm10.78,1.08,1.73-1.32q2.43,2.72,4.89,5.83l-2,1.49Q212.62,23.5,210.13,20.55Z"/><path class="cls-2" d="M218.8,28.1q12.08-5.38,13-16.14H219.32V9.68h12.61q.07-3.94.07-7.94h2.55q0,3.94-.07,7.94h13V12h-13q2.08,11.7,13.65,15.44a24.23,24.23,0,0,0-2.23,2.37A20.3,20.3,0,0,1,233.4,16.11Q231.11,25,220.61,30.36,220,29.57,218.8,28.1Z"/><path class="cls-2" d="M264.59,4.26a50.1,50.1,0,0,1-13.15,11.13,24.53,24.53,0,0,0-1.61-2.14A38.34,38.34,0,0,0,263.44,1.88h3.13l-.56.73a29.36,29.36,0,0,0,13.39,9.93A24.94,24.94,0,0,0,277.77,15,33.75,33.75,0,0,1,264.59,4.26ZM269,22q4.25,3.78,7.32,7.09l-1.9,1.7q-.94-1.08-2.17-2.4-7.29.44-14.91,1a8.53,8.53,0,0,0-2.49.64l-1.32-2.43A7.58,7.58,0,0,0,256,26.14a42.69,42.69,0,0,0,4.92-5.83h-9.76V18.14H278v2.17H263.85A88.33,88.33,0,0,1,258,27l12.36-.62q-1.35-1.38-3-3Zm-12.57-9.84h16.17v2.17H256.44Z"/></g></svg>